<?xml version="1.0" encoding="UTF-8" standalone="no"?><svg xmlns="http://www.w3.org/2000/svg" xmlns:xlink="http://www.w3.org/1999/xlink" contentScriptType="application/ecmascript" contentStyleType="text/css" height="101px" preserveAspectRatio="none" style="width:162px;height:101px;background:#FFFFFF;" version="1.1" viewBox="0 0 162 101" width="162px" zoomAndPan="magnify"><defs/><g><rect fill="none" height="11.7773" style="stroke:none;stroke-width:1.0;" width="41" x="118" y="0"/><text fill="#888888" font-family="sans-serif" font-size="10" lengthAdjust="spacing" textLength="41" x="118" y="9.668">Header1</text><rect fill="none" height="26.4883" style="stroke:none;stroke-width:1.0;" width="53" x="53" y="17.7773"/><text fill="#000000" font-family="sans-serif" font-size="14" font-weight="bold" lengthAdjust="spacing" textLength="43" x="58" y="36.3125">Title1</text><line style="stroke:#C0C0C0;stroke-width:1.0;" x1="0" x2="0" y1="50.2656" y2="83.2207"/><line style="stroke:#C0C0C0;stroke-width:1.0;" x1="16" x2="16" y1="50.2656" y2="83.2207"/><line style="stroke:#C0C0C0;stroke-width:1.0;" x1="32" x2="32" y1="50.2656" y2="83.2207"/><line style="stroke:#C0C0C0;stroke-width:1.0;" x1="48" x2="48" y1="50.2656" y2="83.2207"/><line style="stroke:#C0C0C0;stroke-width:1.0;" x1="64" x2="64" y1="50.2656" y2="83.2207"/><line style="stroke:#C0C0C0;stroke-width:1.0;" x1="80" x2="80" y1="50.2656" y2="83.2207"/><line style="stroke:#C0C0C0;stroke-width:1.0;" x1="96" x2="96" y1="50.2656" y2="83.2207"/><line style="stroke:#C0C0C0;stroke-width:1.0;" x1="112" x2="112" y1="50.2656" y2="83.2207"/><line style="stroke:#C0C0C0;stroke-width:1.0;" x1="128" x2="128" y1="50.2656" y2="83.2207"/><line style="stroke:#C0C0C0;stroke-width:1.0;" x1="144" x2="144" y1="50.2656" y2="83.2207"/><line style="stroke:#C0C0C0;stroke-width:1.0;" x1="160" x2="160" y1="50.2656" y2="83.2207"/><text fill="#000000" font-family="Serif" font-size="10" lengthAdjust="spacing" textLength="5" x="5.5" y="57.7656">1</text><text fill="#000000" font-family="Serif" font-size="10" lengthAdjust="spacing" textLength="5" x="21.5" y="57.7656">2</text><text fill="#000000" font-family="Serif" font-size="10" lengthAdjust="spacing" textLength="5" x="37.5" y="57.7656">3</text><text fill="#000000" font-family="Serif" font-size="10" lengthAdjust="spacing" textLength="5" x="53.5" y="57.7656">4</text><text fill="#000000" font-family="Serif" font-size="10" lengthAdjust="spacing" textLength="5" x="69.5" y="57.7656">5</text><text fill="#000000" font-family="Serif" font-size="10" lengthAdjust="spacing" textLength="5" x="85.5" y="57.7656">6</text><text fill="#000000" font-family="Serif" font-size="10" lengthAdjust="spacing" textLength="5" x="101.5" y="57.7656">7</text><text fill="#000000" font-family="Serif" font-size="10" lengthAdjust="spacing" textLength="5" x="117.5" y="57.7656">8</text><text fill="#000000" font-family="Serif" font-size="10" lengthAdjust="spacing" textLength="5" x="133.5" y="57.7656">9</text><text fill="#000000" font-family="Serif" font-size="10" lengthAdjust="spacing" textLength="10" x="147" y="57.7656">10</text><line style="stroke:#C0C0C0;stroke-width:1.0;" x1="0" x2="160" y1="50.2656" y2="50.2656"/><line style="stroke:#C0C0C0;stroke-width:1.0;" x1="0" x2="160" y1="63.2656" y2="63.2656"/><rect fill="#FEFECE" height="12.9551" style="stroke:none;stroke-width:1.0;" width="31.2" x="2" y="68.2656"/><rect fill="#FFFFFF" height="12.9551" style="stroke:none;stroke-width:1.0;" width="124.8" x="33.2" y="68.2656"/><line style="stroke:#A80036;stroke-width:1.0;" x1="2" x2="158" y1="68.2656" y2="68.2656"/><line style="stroke:#A80036;stroke-width:1.0;" x1="2" x2="158" y1="81.2207" y2="81.2207"/><line style="stroke:#A80036;stroke-width:1.0;" x1="2" x2="2" y1="68.2656" y2="81.2207"/><line style="stroke:#A80036;stroke-width:1.0;" x1="158" x2="158" y1="68.2656" y2="81.2207"/><text fill="#000000" font-family="sans-serif" font-size="11" lengthAdjust="spacing" textLength="32" x="6" y="78.9004">Task1</text><line style="stroke:#C0C0C0;stroke-width:1.0;" x1="0" x2="0" y1="83.2207" y2="99.2207"/><line style="stroke:#C0C0C0;stroke-width:1.0;" x1="16" x2="16" y1="83.2207" y2="99.2207"/><line style="stroke:#C0C0C0;stroke-width:1.0;" x1="32" x2="32" y1="83.2207" y2="99.2207"/><line style="stroke:#C0C0C0;stroke-width:1.0;" x1="48" x2="48" y1="83.2207" y2="99.2207"/><line style="stroke:#C0C0C0;stroke-width:1.0;" x1="64" x2="64" y1="83.2207" y2="99.2207"/><line style="stroke:#C0C0C0;stroke-width:1.0;" x1="80" x2="80" y1="83.2207" y2="99.2207"/><line style="stroke:#C0C0C0;stroke-width:1.0;" x1="96" x2="96" y1="83.2207" y2="99.2207"/><line style="stroke:#C0C0C0;stroke-width:1.0;" x1="112" x2="112" y1="83.2207" y2="99.2207"/><line style="stroke:#C0C0C0;stroke-width:1.0;" x1="128" x2="128" y1="83.2207" y2="99.2207"/><line style="stroke:#C0C0C0;stroke-width:1.0;" x1="144" x2="144" y1="83.2207" y2="99.2207"/><line style="stroke:#C0C0C0;stroke-width:1.0;" x1="160" x2="160" y1="83.2207" y2="99.2207"/><text fill="#000000" font-family="Serif" font-size="10" lengthAdjust="spacing" textLength="5" x="5.5" y="93.7207">1</text><text fill="#000000" font-family="Serif" font-size="10" lengthAdjust="spacing" textLength="5" x="21.5" y="93.7207">2</text><text fill="#000000" font-family="Serif" font-size="10" lengthAdjust="spacing" textLength="5" x="37.5" y="93.7207">3</text><text fill="#000000" font-family="Serif" font-size="10" lengthAdjust="spacing" textLength="5" x="53.5" y="93.7207">4</text><text fill="#000000" font-family="Serif" font-size="10" lengthAdjust="spacing" textLength="5" x="69.5" y="93.7207">5</text><text fill="#000000" font-family="Serif" font-size="10" lengthAdjust="spacing" textLength="5" x="85.5" y="93.7207">6</text><text fill="#000000" font-family="Serif" font-size="10" lengthAdjust="spacing" textLength="5" x="101.5" y="93.7207">7</text><text fill="#000000" font-family="Serif" font-size="10" lengthAdjust="spacing" textLength="5" x="117.5" y="93.7207">8</text><text fill="#000000" font-family="Serif" font-size="10" lengthAdjust="spacing" textLength="5" x="133.5" y="93.7207">9</text><text fill="#000000" font-family="Serif" font-size="10" lengthAdjust="spacing" textLength="10" x="147" y="93.7207">10</text><line style="stroke:#C0C0C0;stroke-width:1.0;" x1="0" x2="160" y1="86.2207" y2="86.2207"/><!--MD5=[9a6314c1928b55989107402be913e600]
@startgantt

Title Title1

Header Header1

projectscale daily


[Task1] as [t1] lasts 10 days

[t1] is 20% completed



@endgantt

PlantUML version 1.2021.7(Sun May 23 15:40:07 MSK 2021)
(GPL source distribution)
Java Runtime: OpenJDK Runtime Environment
JVM: OpenJDK 64-Bit Server VM
Default Encoding: UTF-8
Language: en
Country: RU
--></g></svg>