<?xml version="1.0" encoding="UTF-8" standalone="no"?><svg xmlns="http://www.w3.org/2000/svg" xmlns:xlink="http://www.w3.org/1999/xlink" contentScriptType="application/ecmascript" contentStyleType="text/css" height="354.6559px" preserveAspectRatio="none" style="width:1202px;height:354px;background:#FFFFFF;" version="1.1" viewBox="0 0 1202 354" width="1202.4291px" zoomAndPan="magnify"><defs/><g><line style="stroke:#C0C0C0;stroke-width:2.42914979757085;" x1="0" x2="0" y1="0" y2="312.8147"/><line style="stroke:#C0C0C0;stroke-width:2.42914979757085;" x1="38.8664" x2="38.8664" y1="0" y2="312.8147"/><line style="stroke:#C0C0C0;stroke-width:2.42914979757085;" x1="77.7328" x2="77.7328" y1="0" y2="312.8147"/><line style="stroke:#C0C0C0;stroke-width:2.42914979757085;" x1="116.5992" x2="116.5992" y1="0" y2="312.8147"/><line style="stroke:#C0C0C0;stroke-width:2.42914979757085;" x1="155.4656" x2="155.4656" y1="0" y2="312.8147"/><line style="stroke:#C0C0C0;stroke-width:2.42914979757085;" x1="194.332" x2="194.332" y1="0" y2="312.8147"/><line style="stroke:#C0C0C0;stroke-width:2.42914979757085;" x1="233.1984" x2="233.1984" y1="0" y2="312.8147"/><line style="stroke:#C0C0C0;stroke-width:2.42914979757085;" x1="272.0648" x2="272.0648" y1="0" y2="312.8147"/><line style="stroke:#C0C0C0;stroke-width:2.42914979757085;" x1="310.9312" x2="310.9312" y1="0" y2="312.8147"/><line style="stroke:#C0C0C0;stroke-width:2.42914979757085;" x1="349.7976" x2="349.7976" y1="0" y2="312.8147"/><line style="stroke:#C0C0C0;stroke-width:2.42914979757085;" x1="388.664" x2="388.664" y1="0" y2="312.8147"/><line style="stroke:#C0C0C0;stroke-width:2.42914979757085;" x1="427.5304" x2="427.5304" y1="0" y2="312.8147"/><line style="stroke:#C0C0C0;stroke-width:2.42914979757085;" x1="466.3968" x2="466.3968" y1="0" y2="312.8147"/><line style="stroke:#C0C0C0;stroke-width:2.42914979757085;" x1="505.2632" x2="505.2632" y1="0" y2="312.8147"/><line style="stroke:#C0C0C0;stroke-width:2.42914979757085;" x1="544.1296" x2="544.1296" y1="0" y2="312.8147"/><line style="stroke:#C0C0C0;stroke-width:2.42914979757085;" x1="582.996" x2="582.996" y1="0" y2="312.8147"/><line style="stroke:#C0C0C0;stroke-width:2.42914979757085;" x1="621.8623" x2="621.8623" y1="0" y2="312.8147"/><line style="stroke:#C0C0C0;stroke-width:2.42914979757085;" x1="660.7287" x2="660.7287" y1="0" y2="312.8147"/><line style="stroke:#C0C0C0;stroke-width:2.42914979757085;" x1="699.5951" x2="699.5951" y1="0" y2="312.8147"/><line style="stroke:#C0C0C0;stroke-width:2.42914979757085;" x1="738.4615" x2="738.4615" y1="0" y2="312.8147"/><line style="stroke:#C0C0C0;stroke-width:2.42914979757085;" x1="777.3279" x2="777.3279" y1="0" y2="312.8147"/><line style="stroke:#C0C0C0;stroke-width:2.42914979757085;" x1="816.1943" x2="816.1943" y1="0" y2="312.8147"/><line style="stroke:#C0C0C0;stroke-width:2.42914979757085;" x1="855.0607" x2="855.0607" y1="0" y2="312.8147"/><line style="stroke:#C0C0C0;stroke-width:2.42914979757085;" x1="893.9271" x2="893.9271" y1="0" y2="312.8147"/><line style="stroke:#C0C0C0;stroke-width:2.42914979757085;" x1="932.7935" x2="932.7935" y1="0" y2="312.8147"/><line style="stroke:#C0C0C0;stroke-width:2.42914979757085;" x1="971.6599" x2="971.6599" y1="0" y2="312.8147"/><line style="stroke:#C0C0C0;stroke-width:2.42914979757085;" x1="1010.5263" x2="1010.5263" y1="0" y2="312.8147"/><line style="stroke:#C0C0C0;stroke-width:2.42914979757085;" x1="1049.3927" x2="1049.3927" y1="0" y2="312.8147"/><line style="stroke:#C0C0C0;stroke-width:2.42914979757085;" x1="1088.2591" x2="1088.2591" y1="0" y2="312.8147"/><line style="stroke:#C0C0C0;stroke-width:2.42914979757085;" x1="1127.1255" x2="1127.1255" y1="0" y2="312.8147"/><line style="stroke:#C0C0C0;stroke-width:2.42914979757085;" x1="1165.9919" x2="1165.9919" y1="0" y2="312.8147"/><text fill="#000000" font-family="Serif" font-size="24.2915" lengthAdjust="spacing" textLength="12.1457" x="13.3603" y="18.2186">1</text><text fill="#000000" font-family="Serif" font-size="24.2915" lengthAdjust="spacing" textLength="12.1457" x="52.2267" y="18.2186">2</text><text fill="#000000" font-family="Serif" font-size="24.2915" lengthAdjust="spacing" textLength="12.1457" x="91.0931" y="18.2186">3</text><text fill="#000000" font-family="Serif" font-size="24.2915" lengthAdjust="spacing" textLength="12.1457" x="129.9595" y="18.2186">4</text><text fill="#000000" font-family="Serif" font-size="24.2915" lengthAdjust="spacing" textLength="12.1457" x="168.8259" y="18.2186">5</text><text fill="#000000" font-family="Serif" font-size="24.2915" lengthAdjust="spacing" textLength="12.1457" x="207.6923" y="18.2186">6</text><text fill="#000000" font-family="Serif" font-size="24.2915" lengthAdjust="spacing" textLength="12.1457" x="246.5587" y="18.2186">7</text><text fill="#000000" font-family="Serif" font-size="24.2915" lengthAdjust="spacing" textLength="12.1457" x="285.4251" y="18.2186">8</text><text fill="#000000" font-family="Serif" font-size="24.2915" lengthAdjust="spacing" textLength="12.1457" x="324.2915" y="18.2186">9</text><text fill="#000000" font-family="Serif" font-size="24.2915" lengthAdjust="spacing" textLength="24.2915" x="357.085" y="18.2186">10</text><text fill="#000000" font-family="Serif" font-size="24.2915" lengthAdjust="spacing" textLength="24.2915" x="395.9514" y="18.2186">11</text><text fill="#000000" font-family="Serif" font-size="24.2915" lengthAdjust="spacing" textLength="24.2915" x="434.8178" y="18.2186">12</text><text fill="#000000" font-family="Serif" font-size="24.2915" lengthAdjust="spacing" textLength="24.2915" x="473.6842" y="18.2186">13</text><text fill="#000000" font-family="Serif" font-size="24.2915" lengthAdjust="spacing" textLength="24.2915" x="512.5506" y="18.2186">14</text><text fill="#000000" font-family="Serif" font-size="24.2915" lengthAdjust="spacing" textLength="24.2915" x="551.417" y="18.2186">15</text><text fill="#000000" font-family="Serif" font-size="24.2915" lengthAdjust="spacing" textLength="24.2915" x="590.2834" y="18.2186">16</text><text fill="#000000" font-family="Serif" font-size="24.2915" lengthAdjust="spacing" textLength="24.2915" x="629.1498" y="18.2186">17</text><text fill="#000000" font-family="Serif" font-size="24.2915" lengthAdjust="spacing" textLength="24.2915" x="668.0162" y="18.2186">18</text><text fill="#000000" font-family="Serif" font-size="24.2915" lengthAdjust="spacing" textLength="24.2915" x="706.8826" y="18.2186">19</text><text fill="#000000" font-family="Serif" font-size="24.2915" lengthAdjust="spacing" textLength="24.2915" x="745.749" y="18.2186">20</text><text fill="#000000" font-family="Serif" font-size="24.2915" lengthAdjust="spacing" textLength="24.2915" x="784.6154" y="18.2186">21</text><text fill="#000000" font-family="Serif" font-size="24.2915" lengthAdjust="spacing" textLength="24.2915" x="823.4818" y="18.2186">22</text><text fill="#000000" font-family="Serif" font-size="24.2915" lengthAdjust="spacing" textLength="24.2915" x="862.3482" y="18.2186">23</text><text fill="#000000" font-family="Serif" font-size="24.2915" lengthAdjust="spacing" textLength="24.2915" x="901.2146" y="18.2186">24</text><text fill="#000000" font-family="Serif" font-size="24.2915" lengthAdjust="spacing" textLength="24.2915" x="940.081" y="18.2186">25</text><text fill="#000000" font-family="Serif" font-size="24.2915" lengthAdjust="spacing" textLength="24.2915" x="978.9474" y="18.2186">26</text><text fill="#000000" font-family="Serif" font-size="24.2915" lengthAdjust="spacing" textLength="24.2915" x="1017.8138" y="18.2186">27</text><text fill="#000000" font-family="Serif" font-size="24.2915" lengthAdjust="spacing" textLength="24.2915" x="1056.6802" y="18.2186">28</text><text fill="#000000" font-family="Serif" font-size="24.2915" lengthAdjust="spacing" textLength="24.2915" x="1095.5466" y="18.2186">29</text><text fill="#000000" font-family="Serif" font-size="24.2915" lengthAdjust="spacing" textLength="24.2915" x="1134.413" y="18.2186">30</text><line style="stroke:#C0C0C0;stroke-width:2.42914979757085;" x1="0" x2="1165.9919" y1="0" y2="0"/><line style="stroke:#C0C0C0;stroke-width:2.42914979757085;" x1="0" x2="1165.9919" y1="31.5789" y2="31.5789"/><line style="stroke:#A80036;stroke-width:3.643724696356275;" x1="1163.5628" x2="1182.996" y1="59.4596" y2="59.4596"/><line style="stroke:#A80036;stroke-width:3.643724696356275;" x1="1182.996" x2="1182.996" y1="59.4596" y2="100.646"/><line style="stroke:#A80036;stroke-width:3.643724696356275;" x1="1182.996" x2="1163.5628" y1="100.646" y2="100.646"/><polygon fill="#A80036" points="1173.2794,90.9294,1173.2794,100.646,1173.2794,110.3626,1163.5628,100.646" style="stroke:#A80036;stroke-width:3.643724696356275;"/><line style="stroke:#A80036;stroke-width:3.643724696356275;" x1="1029.9595" x2="1029.9595" y1="116.3809" y2="141.8325"/><line style="stroke:#A80036;stroke-width:3.643724696356275;" x1="1029.9595" x2="1008.0972" y1="141.8325" y2="141.8325"/><polygon fill="#A80036" points="1017.8138,132.1159,1017.8138,141.8325,1017.8138,151.5491,1008.0972,141.8325" style="stroke:#A80036;stroke-width:3.643724696356275;"/><line style="stroke:#A80036;stroke-width:3.643724696356275;" x1="874.4939" x2="874.4939" y1="157.5674" y2="217.027"/><line style="stroke:#A80036;stroke-width:3.643724696356275;" x1="874.4939" x2="852.6316" y1="217.027" y2="217.027"/><polygon fill="#A80036" points="862.3482,207.3104,862.3482,217.027,862.3482,226.7436,852.6316,217.027" style="stroke:#A80036;stroke-width:3.643724696356275;"/><line style="stroke:#A80036;stroke-width:3.643724696356275;" x1="408.0972" x2="408.0972" y1="232.7619" y2="258.2134"/><line style="stroke:#A80036;stroke-width:3.643724696356275;" x1="408.0972" x2="386.2348" y1="258.2134" y2="258.2134"/><polygon fill="#A80036" points="395.9514,248.4968,395.9514,258.2134,395.9514,267.93,386.2348,258.2134" style="stroke:#A80036;stroke-width:3.643724696356275;"/><rect fill="#FFFFFF" height="31.4698" style="stroke:none;stroke-width:2.42914979757085;" width="1156.2753" x="4.8583" y="43.7247"/><line style="stroke:#808080;stroke-width:2.42914979757085;" x1="4.8583" x2="1161.1336" y1="43.7247" y2="43.7247"/><line style="stroke:#808080;stroke-width:2.42914979757085;" x1="4.8583" x2="1161.1336" y1="75.1945" y2="75.1945"/><line style="stroke:#808080;stroke-width:2.42914979757085;" x1="4.8583" x2="4.8583" y1="43.7247" y2="75.1945"/><line style="stroke:#808080;stroke-width:2.42914979757085;" x1="1161.1336" x2="1161.1336" y1="43.7247" y2="75.1945"/><rect fill="#FFFFFF" height="31.4698" style="stroke:none;stroke-width:2.42914979757085;" width="145.749" x="1015.3846" y="84.9111"/><line style="stroke:#A80036;stroke-width:2.42914979757085;" x1="1015.3846" x2="1161.1336" y1="84.9111" y2="84.9111"/><line style="stroke:#A80036;stroke-width:2.42914979757085;" x1="1015.3846" x2="1161.1336" y1="116.3809" y2="116.3809"/><line style="stroke:#A80036;stroke-width:2.42914979757085;" x1="1015.3846" x2="1015.3846" y1="84.9111" y2="116.3809"/><line style="stroke:#A80036;stroke-width:2.42914979757085;" x1="1161.1336" x2="1161.1336" y1="84.9111" y2="116.3809"/><rect fill="#FFFFFF" height="31.4698" style="stroke:none;stroke-width:2.42914979757085;" width="145.749" x="859.919" y="126.0975"/><line style="stroke:#A80036;stroke-width:2.42914979757085;" x1="859.919" x2="1005.668" y1="126.0975" y2="126.0975"/><line style="stroke:#A80036;stroke-width:2.42914979757085;" x1="859.919" x2="1005.668" y1="157.5674" y2="157.5674"/><line style="stroke:#A80036;stroke-width:2.42914979757085;" x1="859.919" x2="859.919" y1="126.0975" y2="157.5674"/><line style="stroke:#A80036;stroke-width:2.42914979757085;" x1="1005.668" x2="1005.668" y1="126.0975" y2="157.5674"/><polygon fill="#000000" points="991.0931,167.284,1003.2389,179.4297,991.0931,191.5755,978.9474,179.4297" style="stroke:#000000;stroke-width:2.42914979757085;"/><rect fill="#FFFFFF" height="31.4698" style="stroke:none;stroke-width:2.42914979757085;" width="456.6802" x="393.5223" y="201.2921"/><line style="stroke:#A80036;stroke-width:2.42914979757085;" x1="393.5223" x2="850.2024" y1="201.2921" y2="201.2921"/><line style="stroke:#A80036;stroke-width:2.42914979757085;" x1="393.5223" x2="850.2024" y1="232.7619" y2="232.7619"/><line style="stroke:#A80036;stroke-width:2.42914979757085;" x1="393.5223" x2="393.5223" y1="201.2921" y2="232.7619"/><line style="stroke:#A80036;stroke-width:2.42914979757085;" x1="850.2024" x2="850.2024" y1="201.2921" y2="232.7619"/><rect fill="#FFFFFF" height="31.4698" style="stroke:none;stroke-width:2.42914979757085;" width="378.9474" x="4.8583" y="242.4785"/><line style="stroke:#A80036;stroke-width:2.42914979757085;" x1="4.8583" x2="383.8057" y1="242.4785" y2="242.4785"/><line style="stroke:#A80036;stroke-width:2.42914979757085;" x1="4.8583" x2="383.8057" y1="273.9483" y2="273.9483"/><line style="stroke:#A80036;stroke-width:2.42914979757085;" x1="4.8583" x2="4.8583" y1="242.4785" y2="273.9483"/><line style="stroke:#A80036;stroke-width:2.42914979757085;" x1="383.8057" x2="383.8057" y1="242.4785" y2="273.9483"/><polygon fill="#000000" points="369.2308,283.6649,381.3765,295.8107,369.2308,307.9564,357.085,295.8107" style="stroke:#000000;stroke-width:2.42914979757085;"/><text fill="#000000" font-family="sans-serif" font-size="26.7206" lengthAdjust="spacing" textLength="174.8988" x="14.5749" y="69.5581">whole project</text><text fill="#000000" font-family="sans-serif" font-size="26.7206" lengthAdjust="spacing" textLength="70.4453" x="1025.1012" y="110.7446">task4</text><text fill="#000000" font-family="sans-serif" font-size="26.7206" lengthAdjust="spacing" textLength="70.4453" x="869.6356" y="151.931">task3</text><text fill="#000000" font-family="sans-serif" font-size="26.7206" lengthAdjust="spacing" textLength="41.2955" x="1010.5263" y="189.5282">m2</text><text fill="#000000" font-family="sans-serif" font-size="26.7206" lengthAdjust="spacing" textLength="70.4453" x="403.2389" y="227.1255">task2</text><text fill="#000000" font-family="sans-serif" font-size="26.7206" lengthAdjust="spacing" textLength="70.4453" x="14.5749" y="268.3119">task1</text><text fill="#000000" font-family="sans-serif" font-size="26.7206" lengthAdjust="spacing" textLength="41.2955" x="388.664" y="305.9092">m1</text><line style="stroke:#C0C0C0;stroke-width:2.42914979757085;" x1="0" x2="0" y1="312.8147" y2="351.6811"/><line style="stroke:#C0C0C0;stroke-width:2.42914979757085;" x1="38.8664" x2="38.8664" y1="312.8147" y2="351.6811"/><line style="stroke:#C0C0C0;stroke-width:2.42914979757085;" x1="77.7328" x2="77.7328" y1="312.8147" y2="351.6811"/><line style="stroke:#C0C0C0;stroke-width:2.42914979757085;" x1="116.5992" x2="116.5992" y1="312.8147" y2="351.6811"/><line style="stroke:#C0C0C0;stroke-width:2.42914979757085;" x1="155.4656" x2="155.4656" y1="312.8147" y2="351.6811"/><line style="stroke:#C0C0C0;stroke-width:2.42914979757085;" x1="194.332" x2="194.332" y1="312.8147" y2="351.6811"/><line style="stroke:#C0C0C0;stroke-width:2.42914979757085;" x1="233.1984" x2="233.1984" y1="312.8147" y2="351.6811"/><line style="stroke:#C0C0C0;stroke-width:2.42914979757085;" x1="272.0648" x2="272.0648" y1="312.8147" y2="351.6811"/><line style="stroke:#C0C0C0;stroke-width:2.42914979757085;" x1="310.9312" x2="310.9312" y1="312.8147" y2="351.6811"/><line style="stroke:#C0C0C0;stroke-width:2.42914979757085;" x1="349.7976" x2="349.7976" y1="312.8147" y2="351.6811"/><line style="stroke:#C0C0C0;stroke-width:2.42914979757085;" x1="388.664" x2="388.664" y1="312.8147" y2="351.6811"/><line style="stroke:#C0C0C0;stroke-width:2.42914979757085;" x1="427.5304" x2="427.5304" y1="312.8147" y2="351.6811"/><line style="stroke:#C0C0C0;stroke-width:2.42914979757085;" x1="466.3968" x2="466.3968" y1="312.8147" y2="351.6811"/><line style="stroke:#C0C0C0;stroke-width:2.42914979757085;" x1="505.2632" x2="505.2632" y1="312.8147" y2="351.6811"/><line style="stroke:#C0C0C0;stroke-width:2.42914979757085;" x1="544.1296" x2="544.1296" y1="312.8147" y2="351.6811"/><line style="stroke:#C0C0C0;stroke-width:2.42914979757085;" x1="582.996" x2="582.996" y1="312.8147" y2="351.6811"/><line style="stroke:#C0C0C0;stroke-width:2.42914979757085;" x1="621.8623" x2="621.8623" y1="312.8147" y2="351.6811"/><line style="stroke:#C0C0C0;stroke-width:2.42914979757085;" x1="660.7287" x2="660.7287" y1="312.8147" y2="351.6811"/><line style="stroke:#C0C0C0;stroke-width:2.42914979757085;" x1="699.5951" x2="699.5951" y1="312.8147" y2="351.6811"/><line style="stroke:#C0C0C0;stroke-width:2.42914979757085;" x1="738.4615" x2="738.4615" y1="312.8147" y2="351.6811"/><line style="stroke:#C0C0C0;stroke-width:2.42914979757085;" x1="777.3279" x2="777.3279" y1="312.8147" y2="351.6811"/><line style="stroke:#C0C0C0;stroke-width:2.42914979757085;" x1="816.1943" x2="816.1943" y1="312.8147" y2="351.6811"/><line style="stroke:#C0C0C0;stroke-width:2.42914979757085;" x1="855.0607" x2="855.0607" y1="312.8147" y2="351.6811"/><line style="stroke:#C0C0C0;stroke-width:2.42914979757085;" x1="893.9271" x2="893.9271" y1="312.8147" y2="351.6811"/><line style="stroke:#C0C0C0;stroke-width:2.42914979757085;" x1="932.7935" x2="932.7935" y1="312.8147" y2="351.6811"/><line style="stroke:#C0C0C0;stroke-width:2.42914979757085;" x1="971.6599" x2="971.6599" y1="312.8147" y2="351.6811"/><line style="stroke:#C0C0C0;stroke-width:2.42914979757085;" x1="1010.5263" x2="1010.5263" y1="312.8147" y2="351.6811"/><line style="stroke:#C0C0C0;stroke-width:2.42914979757085;" x1="1049.3927" x2="1049.3927" y1="312.8147" y2="351.6811"/><line style="stroke:#C0C0C0;stroke-width:2.42914979757085;" x1="1088.2591" x2="1088.2591" y1="312.8147" y2="351.6811"/><line style="stroke:#C0C0C0;stroke-width:2.42914979757085;" x1="1127.1255" x2="1127.1255" y1="312.8147" y2="351.6811"/><line style="stroke:#C0C0C0;stroke-width:2.42914979757085;" x1="1165.9919" x2="1165.9919" y1="312.8147" y2="351.6811"/><text fill="#000000" font-family="Serif" font-size="24.2915" lengthAdjust="spacing" textLength="12.1457" x="13.3603" y="338.3208">1</text><text fill="#000000" font-family="Serif" font-size="24.2915" lengthAdjust="spacing" textLength="12.1457" x="52.2267" y="338.3208">2</text><text fill="#000000" font-family="Serif" font-size="24.2915" lengthAdjust="spacing" textLength="12.1457" x="91.0931" y="338.3208">3</text><text fill="#000000" font-family="Serif" font-size="24.2915" lengthAdjust="spacing" textLength="12.1457" x="129.9595" y="338.3208">4</text><text fill="#000000" font-family="Serif" font-size="24.2915" lengthAdjust="spacing" textLength="12.1457" x="168.8259" y="338.3208">5</text><text fill="#000000" font-family="Serif" font-size="24.2915" lengthAdjust="spacing" textLength="12.1457" x="207.6923" y="338.3208">6</text><text fill="#000000" font-family="Serif" font-size="24.2915" lengthAdjust="spacing" textLength="12.1457" x="246.5587" y="338.3208">7</text><text fill="#000000" font-family="Serif" font-size="24.2915" lengthAdjust="spacing" textLength="12.1457" x="285.4251" y="338.3208">8</text><text fill="#000000" font-family="Serif" font-size="24.2915" lengthAdjust="spacing" textLength="12.1457" x="324.2915" y="338.3208">9</text><text fill="#000000" font-family="Serif" font-size="24.2915" lengthAdjust="spacing" textLength="24.2915" x="357.085" y="338.3208">10</text><text fill="#000000" font-family="Serif" font-size="24.2915" lengthAdjust="spacing" textLength="24.2915" x="395.9514" y="338.3208">11</text><text fill="#000000" font-family="Serif" font-size="24.2915" lengthAdjust="spacing" textLength="24.2915" x="434.8178" y="338.3208">12</text><text fill="#000000" font-family="Serif" font-size="24.2915" lengthAdjust="spacing" textLength="24.2915" x="473.6842" y="338.3208">13</text><text fill="#000000" font-family="Serif" font-size="24.2915" lengthAdjust="spacing" textLength="24.2915" x="512.5506" y="338.3208">14</text><text fill="#000000" font-family="Serif" font-size="24.2915" lengthAdjust="spacing" textLength="24.2915" x="551.417" y="338.3208">15</text><text fill="#000000" font-family="Serif" font-size="24.2915" lengthAdjust="spacing" textLength="24.2915" x="590.2834" y="338.3208">16</text><text fill="#000000" font-family="Serif" font-size="24.2915" lengthAdjust="spacing" textLength="24.2915" x="629.1498" y="338.3208">17</text><text fill="#000000" font-family="Serif" font-size="24.2915" lengthAdjust="spacing" textLength="24.2915" x="668.0162" y="338.3208">18</text><text fill="#000000" font-family="Serif" font-size="24.2915" lengthAdjust="spacing" textLength="24.2915" x="706.8826" y="338.3208">19</text><text fill="#000000" font-family="Serif" font-size="24.2915" lengthAdjust="spacing" textLength="24.2915" x="745.749" y="338.3208">20</text><text fill="#000000" font-family="Serif" font-size="24.2915" lengthAdjust="spacing" textLength="24.2915" x="784.6154" y="338.3208">21</text><text fill="#000000" font-family="Serif" font-size="24.2915" lengthAdjust="spacing" textLength="24.2915" x="823.4818" y="338.3208">22</text><text fill="#000000" font-family="Serif" font-size="24.2915" lengthAdjust="spacing" textLength="24.2915" x="862.3482" y="338.3208">23</text><text fill="#000000" font-family="Serif" font-size="24.2915" lengthAdjust="spacing" textLength="24.2915" x="901.2146" y="338.3208">24</text><text fill="#000000" font-family="Serif" font-size="24.2915" lengthAdjust="spacing" textLength="24.2915" x="940.081" y="338.3208">25</text><text fill="#000000" font-family="Serif" font-size="24.2915" lengthAdjust="spacing" textLength="24.2915" x="978.9474" y="338.3208">26</text><text fill="#000000" font-family="Serif" font-size="24.2915" lengthAdjust="spacing" textLength="24.2915" x="1017.8138" y="338.3208">27</text><text fill="#000000" font-family="Serif" font-size="24.2915" lengthAdjust="spacing" textLength="24.2915" x="1056.6802" y="338.3208">28</text><text fill="#000000" font-family="Serif" font-size="24.2915" lengthAdjust="spacing" textLength="24.2915" x="1095.5466" y="338.3208">29</text><text fill="#000000" font-family="Serif" font-size="24.2915" lengthAdjust="spacing" textLength="24.2915" x="1134.413" y="338.3208">30</text><line style="stroke:#C0C0C0;stroke-width:2.42914979757085;" x1="0" x2="1165.9919" y1="320.1022" y2="320.1022"/><!--MD5=[14e951928b44c2889c573789e2366e4b]
@startgantt

scale 1200*800

projectscale daily


[whole project] as [t5] lasts 30 days
[task4] as [t4] lasts 4 days and ends at [t5]'s end
[task3] as [t3] lasts 4 days and ends at [t4]'s start
[m2] happens after [t3]'s end
[task2] as [t2] lasts 12 days and ends at [t3]'s start
[task1] as [t1] lasts 10 days and ends at [t2]'s start
[m1] happens after [t1]'s end

[t5] is 0% completed
[t4] is 0% completed
[t3] is 0% completed
[t2] is 0% completed
[t1] is 0% completed

[t5] is colored in Gray


@endgantt

PlantUML version 1.2021.7(Sun May 23 15:40:07 MSK 2021)
(GPL source distribution)
Java Runtime: OpenJDK Runtime Environment
JVM: OpenJDK 64-Bit Server VM
Default Encoding: UTF-8
Language: en
Country: RU
--></g></svg>